<?xml version="1.0" encoding="utf-8"?>
<!-- Generator: Adobe Illustrator 21.1.0, SVG Export Plug-In . SVG Version: 6.00 Build 0)  -->
<svg version="1.1" id="Layer_1" xmlns="http://www.w3.org/2000/svg" xmlns:xlink="http://www.w3.org/1999/xlink" x="0px" y="0px"
	 viewBox="0 0 931.5 88.4" style="enable-background:new 0 0 931.5 88.4;" xml:space="preserve">
<style type="text/css">
	.st0{fill:#0B9AD7;}
	.st1{fill:#003767;}
</style>
<g>
	<g>
		<path class="st0" d="M741.3,86.8h-16.6l-22.9-64.9l-23,64.9h-16.6l33.2-85.1h12.6L741.3,86.8z"/>
	</g>
	<path class="st1" d="M83.7,62.9c-3.2,7.7-8.4,13.9-15.7,18.6c-7.2,4.6-15.3,6.9-24.1,6.9c-12.2,0-22.5-4.3-31.1-12.9
		C4.3,66.9,0,56.5,0,44.2C0,32,4.3,21.5,12.8,12.9C21.4,4.3,31.7,0,43.9,0C52.9,0,61,2.3,68.3,7c7.3,4.7,12.6,11,15.9,18.9H66.2
		c-2.7-3.4-6.1-6.2-10.2-8.2c-4.1-2-8.4-3.1-12.7-3.1c-7.5,0-14,2.9-19.4,8.6c-5.4,5.7-8.2,12.5-8.2,20.4c0,8.4,2.8,15.6,8.3,21.4
		c5.6,5.8,12.3,8.8,20.4,8.8c4,0,7.9-1,11.7-2.9c3.9-2,7.1-4.6,9.6-7.9H83.7z"/>
	<path class="st1" d="M168.1,1.7h12.2L216,86.8h-17.2l-8.5-22h-32.1l-8.3,22h-17.3L168.1,1.7z M163.7,50.1h20.9L174.1,23h0
		L163.7,50.1z"/>
	<path class="st1" d="M271.1,1.7h22.6c10.1,0,17.9,2.2,23.5,6.6c5.6,4.4,8.3,10.7,8.3,18.7c0,9.1-2.7,15.9-8,20.5
		c-5.4,4.6-13.3,6.9-23.8,6.9h-6.9v32.3h-15.7V1.7z M286.8,39.8h6.9c5.4,0,9.4-1,12-2.9c2.7-1.9,4-4.9,4-8.8c0-3.9-1.3-6.8-4-8.8
		c-2.7-2-6.7-2.9-12-2.9h-6.9V39.8z"/>
	<path class="st1" d="M389.8,16.3H374V1.7h47.4v14.7h-15.8v70.4h-15.7V16.3z"/>
	<path class="st1" d="M475.8,1.7h15.7v85.1h-15.7V1.7z"/>
	<path class="st1" d="M546.6,1.7h16.6l22.9,64.9l23-64.9h16.6l-33.2,85.1h-12.6L546.6,1.7z"/>
	<path class="st1" d="M796.9,16.3h-15.8V1.7h47.4v14.7h-15.8v70.4h-15.7V16.3z"/>
	<path class="st1" d="M885.7,86.8V1.7h45.8v14.7h-30v20.9h28.6v14.7h-28.6v20.2h30v14.7H885.7z"/>
</g>
</svg>
